<svg width="397" height="26" viewBox="0 0 397 26" fill="none" xmlns="http://www.w3.org/2000/svg">
<rect x="0.5" y="0.5" width="37.0685" height="24.9999" rx="3.5" fill="white" stroke="#D9D9D9"/>
<path fill-rule="evenodd" clip-rule="evenodd" d="M11.5568 17.6127H9.25059L7.52121 11.0414C7.43912 10.7391 7.26484 10.4718 7.00847 10.3459C6.36866 10.0294 5.66364 9.77748 4.89453 9.65043V9.39743H8.60966C9.1224 9.39743 9.50696 9.77748 9.57105 10.2189L10.4683 14.959L12.7734 9.39743H15.0156L11.5568 17.6127ZM16.2972 17.6127H14.1191L15.9126 9.39743H18.0906L16.2972 17.6127ZM20.9094 11.6734C20.9735 11.2309 21.3581 10.9779 21.8067 10.9779C22.5117 10.9144 23.2797 11.0414 23.9207 11.3568L24.3052 9.58805C23.6643 9.33505 22.9593 9.20801 22.3195 9.20801C20.2055 9.20801 18.6673 10.3459 18.6673 11.9253C18.6673 13.1267 19.7569 13.7576 20.526 14.1376C21.3581 14.5166 21.6785 14.7695 21.6144 15.1485C21.6144 15.7169 20.9735 15.9699 20.3337 15.9699C19.5646 15.9699 18.7955 15.7804 18.0916 15.4639L17.707 17.2338C18.4761 17.5492 19.3082 17.6763 20.0773 17.6763C22.4476 17.7387 23.9207 16.6019 23.9207 14.8955C23.9207 12.7467 20.9094 12.6207 20.9094 11.6734ZM31.5441 17.6127L29.8147 9.39743H27.9571C27.5725 9.39743 27.188 9.65043 27.0598 10.0294L23.8574 17.6127H26.0995L26.5471 16.4123H29.3019L29.5583 17.6127H31.5441ZM28.2748 11.6098L28.9146 14.706H27.1211L28.2748 11.6098Z" fill="#172B85"/>
<rect x="359.432" y="0.5" width="37.0685" height="24.9999" rx="3.5" fill="white" stroke="#D9D9D9"/>
<path fill-rule="evenodd" clip-rule="evenodd" d="M368.008 9.67704C368.519 9.71999 369.031 9.41931 369.35 9.03809C369.664 8.64613 369.872 8.11994 369.819 7.58301C369.366 7.60449 368.807 7.88369 368.487 8.27565C368.194 8.61391 367.944 9.16158 368.008 9.67704ZM374.088 16.5927V8.22193H377.203C378.812 8.22193 379.935 9.33874 379.935 10.971C379.935 12.6033 378.79 13.7308 377.161 13.7308H375.377V16.5927H374.088ZM369.812 9.77904C369.362 9.7529 368.951 9.9156 368.619 10.047C368.405 10.1316 368.224 10.2032 368.087 10.2032C367.932 10.2032 367.744 10.1278 367.532 10.0431C367.255 9.93206 366.938 9.80516 366.606 9.81125C365.845 9.82199 365.136 10.2569 364.748 10.9495C363.949 12.3348 364.54 14.3859 365.312 15.5134C365.69 16.0719 366.143 16.684 366.739 16.6625C367.002 16.6525 367.19 16.5717 367.386 16.4882C367.611 16.392 367.844 16.292 368.209 16.292C368.561 16.292 368.785 16.3893 368.999 16.4828C369.203 16.5716 369.399 16.657 369.69 16.6517C370.307 16.641 370.696 16.0933 371.074 15.5349C371.482 14.9356 371.662 14.3507 371.689 14.2619L371.692 14.2517C371.691 14.251 371.686 14.2487 371.677 14.2446L371.677 14.2446C371.541 14.1816 370.498 13.7004 370.488 12.41C370.478 11.3269 371.315 10.7781 371.447 10.6917C371.455 10.6865 371.461 10.6829 371.463 10.6811C370.93 9.88642 370.1 9.80051 369.812 9.77904ZM382.29 16.657C383.1 16.657 383.851 16.2436 384.191 15.5885H384.218V16.5926H385.411V12.426C385.411 11.2179 384.452 10.4394 382.977 10.4394C381.609 10.4394 380.597 11.2286 380.559 12.3132H381.72C381.816 11.7978 382.29 11.4595 382.94 11.4595C383.728 11.4595 384.17 11.83 384.17 12.5119V12.9737L382.562 13.0703C381.065 13.1616 380.256 13.7791 380.256 14.8529C380.256 15.9375 381.092 16.657 382.29 16.657ZM382.635 15.6636C381.948 15.6636 381.512 15.3307 381.512 14.8206C381.512 14.2944 381.932 13.9884 382.737 13.9401L384.169 13.8488V14.3213C384.169 15.1052 383.509 15.6636 382.635 15.6636ZM389.366 16.9203C388.85 18.3861 388.259 18.8694 387.002 18.8694C386.906 18.8694 386.586 18.8586 386.512 18.8371V17.8331C386.592 17.8438 386.789 17.8546 386.89 17.8546C387.46 17.8546 387.779 17.6129 387.976 16.9847L388.094 16.6142L385.91 10.5201H387.258L388.775 15.4652H388.802L390.32 10.5201H391.63L389.366 16.9203ZM375.379 9.31715H376.865C377.983 9.31715 378.622 9.91851 378.622 10.9763C378.622 12.034 377.983 12.6407 376.859 12.6407H375.379V9.31715Z" fill="black"/>
<rect x="299.609" y="0.5" width="37.0685" height="24.9999" rx="3.5" fill="white" stroke="#D9D9D9"/>
<path fill-rule="evenodd" clip-rule="evenodd" d="M309.878 16.5112H308.186C308.07 16.5112 307.972 16.595 307.954 16.7089L307.269 21.0303C307.256 21.1156 307.322 21.1925 307.409 21.1925H308.217C308.332 21.1925 308.431 21.1087 308.449 20.9946L308.634 19.8291C308.651 19.7149 308.75 19.6312 308.866 19.6312H309.401C310.516 19.6312 311.159 19.094 311.327 18.0295C311.403 17.5638 311.33 17.1978 311.111 16.9415C310.871 16.6602 310.444 16.5112 309.878 16.5112ZM310.073 18.0896C309.981 18.6943 309.517 18.6943 309.068 18.6943H308.813L308.992 17.5649C309.003 17.4967 309.062 17.4464 309.131 17.4464H309.248C309.554 17.4464 309.842 17.4464 309.991 17.6199C310.08 17.7234 310.107 17.8771 310.073 18.0896ZM314.936 18.0702H314.126C314.056 18.0702 313.997 18.1205 313.986 18.1888L313.95 18.4145L313.894 18.3327C313.718 18.0791 313.327 17.9944 312.937 17.9944C312.041 17.9944 311.277 18.6698 311.128 19.6173C311.05 20.0899 311.16 20.5418 311.429 20.857C311.676 21.1467 312.03 21.2675 312.45 21.2675C313.171 21.2675 313.572 20.8054 313.572 20.8054L313.535 21.0297C313.522 21.1155 313.588 21.1924 313.674 21.1924H314.404C314.52 21.1924 314.618 21.1085 314.637 20.9945L315.075 18.2324C315.088 18.1474 315.022 18.0702 314.936 18.0702ZM313.806 19.6409C313.728 20.102 313.361 20.4115 312.892 20.4115C312.657 20.4115 312.469 20.3363 312.348 20.1939C312.228 20.0525 312.183 19.8511 312.221 19.6269C312.294 19.1697 312.668 18.8502 313.129 18.8502C313.359 18.8502 313.546 18.9263 313.669 19.0699C313.793 19.2151 313.842 19.4176 313.806 19.6409ZM318.437 18.0701H319.251C319.365 18.0701 319.432 18.1975 319.367 18.2906L316.659 22.184C316.615 22.2471 316.543 22.2846 316.466 22.2846H315.652C315.538 22.2846 315.471 22.1562 315.537 22.0628L316.38 20.8773L315.484 18.2558C315.453 18.1647 315.52 18.0701 315.617 18.0701H316.418C316.522 18.0701 316.613 18.1381 316.643 18.2371L317.119 19.8204L318.242 18.1728C318.286 18.1085 318.359 18.0701 318.437 18.0701Z" fill="#253B80"/>
<path fill-rule="evenodd" clip-rule="evenodd" d="M327.264 21.0301L327.959 16.6296C327.969 16.5613 328.029 16.511 328.098 16.5107H328.88C328.966 16.5107 329.032 16.5878 329.019 16.6731L328.334 20.9944C328.316 21.1084 328.218 21.1922 328.102 21.1922H327.403C327.317 21.1922 327.251 21.1154 327.264 21.0301ZM321.946 16.511H320.254C320.139 16.511 320.04 16.5948 320.022 16.7086L319.338 21.0301C319.324 21.1154 319.39 21.1922 319.477 21.1922H320.345C320.426 21.1922 320.495 21.1336 320.507 21.0538L320.702 19.8288C320.72 19.7147 320.818 19.631 320.934 19.631H321.469C322.584 19.631 323.227 19.0937 323.395 18.0292C323.471 17.5635 323.398 17.1976 323.179 16.9412C322.939 16.6599 322.513 16.511 321.946 16.511ZM322.142 18.0893C322.049 18.6941 321.585 18.6941 321.137 18.6941H320.882L321.061 17.5647C321.072 17.4965 321.13 17.4462 321.2 17.4462H321.317C321.622 17.4462 321.911 17.4462 322.06 17.6196C322.148 17.7232 322.176 17.8769 322.142 18.0893ZM327.004 18.0699H326.194C326.124 18.0699 326.065 18.1202 326.055 18.1885L326.019 18.4142L325.962 18.3324C325.787 18.0788 325.396 17.9941 325.006 17.9941C324.11 17.9941 323.346 18.6695 323.197 19.6171C323.12 20.0896 323.229 20.5415 323.498 20.8567C323.746 21.1465 324.099 21.2673 324.519 21.2673C325.24 21.2673 325.64 20.8052 325.64 20.8052L325.604 21.0295C325.591 21.1152 325.657 21.1921 325.744 21.1921H326.473C326.589 21.1921 326.687 21.1083 326.705 20.9943L327.144 18.2321C327.157 18.1471 327.091 18.0699 327.004 18.0699ZM325.874 19.6407C325.797 20.1017 325.429 20.4112 324.96 20.4112C324.725 20.4112 324.537 20.336 324.416 20.1936C324.296 20.0522 324.251 19.8508 324.289 19.6266C324.362 19.1695 324.736 18.8499 325.197 18.8499C325.427 18.8499 325.614 18.926 325.737 19.0697C325.861 19.2149 325.91 19.4174 325.874 19.6407Z" fill="#179BD7"/>
<path d="M316.142 14.9649L316.35 13.649L315.886 13.6382H313.674L315.211 3.92746C315.216 3.89814 315.232 3.8708 315.254 3.85139C315.277 3.83199 315.306 3.82129 315.336 3.82129H319.067C320.306 3.82129 321.16 4.07799 321.607 4.58466C321.816 4.82236 321.949 5.07074 322.014 5.34408C322.081 5.6309 322.082 5.97356 322.016 6.3915L322.011 6.422V6.68979L322.221 6.80785C322.397 6.90094 322.537 7.0075 322.644 7.12952C322.823 7.33274 322.939 7.59103 322.988 7.89725C323.038 8.21219 323.022 8.58694 322.939 9.01122C322.844 9.49928 322.689 9.92435 322.481 10.2722C322.289 10.5926 322.045 10.8584 321.755 11.0645C321.478 11.2602 321.149 11.4087 320.777 11.5038C320.417 11.5972 320.006 11.6444 319.556 11.6444H319.265C319.058 11.6444 318.856 11.7189 318.698 11.8524C318.539 11.9887 318.434 12.1748 318.402 12.3785L318.38 12.497L318.012 14.8163L317.996 14.9015C317.991 14.9285 317.984 14.942 317.973 14.9511C317.963 14.9593 317.948 14.9649 317.934 14.9649H316.142Z" fill="#253B80"/>
<path d="M322.419 6.45312C322.407 6.52403 322.395 6.59652 322.38 6.671C321.888 9.18694 320.205 10.0561 318.055 10.0561H316.961C316.698 10.0561 316.476 10.2462 316.435 10.5045L315.875 14.0445L315.716 15.0479C315.69 15.2175 315.821 15.3704 315.993 15.3704H317.934C318.164 15.3704 318.359 15.204 318.395 14.9783L318.415 14.88L318.78 12.5696L318.804 12.4429C318.839 12.2163 319.035 12.05 319.265 12.05H319.555C321.436 12.05 322.909 11.2893 323.339 9.0883C323.519 8.16884 323.426 7.40111 322.95 6.86115C322.806 6.69833 322.627 6.56325 322.419 6.45312Z" fill="#179BD7"/>
<path d="M321.902 6.24864C321.827 6.22685 321.749 6.20704 321.67 6.18922C321.59 6.17179 321.508 6.15634 321.424 6.14287C321.128 6.09533 320.805 6.07275 320.459 6.07275H317.535C317.463 6.07275 317.394 6.08899 317.333 6.11831C317.198 6.18288 317.098 6.31005 317.074 6.46573L316.451 10.39L316.434 10.5045C316.475 10.2462 316.696 10.056 316.959 10.056H318.054C320.203 10.056 321.887 9.18648 322.379 6.67094C322.393 6.59646 322.406 6.52397 322.417 6.45306C322.292 6.3873 322.157 6.33104 322.012 6.2831C321.976 6.27122 321.94 6.25974 321.902 6.24864Z" fill="#222D65"/>
<path d="M317.074 6.46596C317.098 6.31027 317.198 6.18311 317.333 6.11893C317.395 6.08961 317.463 6.07337 317.535 6.07337H320.459C320.805 6.07337 321.129 6.09595 321.424 6.14349C321.508 6.15696 321.59 6.17241 321.67 6.18983C321.75 6.20767 321.827 6.22748 321.902 6.24926C321.94 6.26035 321.977 6.27184 322.013 6.28333C322.158 6.33126 322.293 6.38791 322.417 6.45328C322.564 5.52352 322.416 4.89048 321.912 4.31724C321.355 3.68619 320.351 3.41602 319.066 3.41602H315.335C315.072 3.41602 314.849 3.60616 314.808 3.86485L313.254 13.6755C313.223 13.8695 313.374 14.0447 313.57 14.0447H315.873L316.452 10.3902L317.074 6.46596Z" fill="#253B80"/>
<rect x="239.789" y="0.5" width="37.0685" height="24.9999" rx="3.5" fill="white" stroke="#D9D9D9"/>
<path fill-rule="evenodd" clip-rule="evenodd" d="M259.742 8.82004L257.809 9.23341V7.67182L259.742 7.26611V8.82004ZM251.886 8.15416L250.006 8.55221L249.998 14.6837C249.998 15.8166 250.853 16.651 251.993 16.651C252.625 16.651 253.088 16.5362 253.342 16.3984V14.8445C253.095 14.944 251.878 15.2961 251.878 14.1632V11.4457H253.342V9.81526H251.878L251.886 8.15416ZM247.331 11.3462C246.922 11.3462 246.676 11.4611 246.676 11.7596C246.676 12.0855 247.1 12.2289 247.626 12.4068C248.485 12.6968 249.614 13.0785 249.619 14.4924C249.619 15.8626 248.517 16.651 246.915 16.651C246.252 16.651 245.528 16.5209 244.811 16.2147V14.3929C245.458 14.745 246.275 15.0052 246.915 15.0052C247.346 15.0052 247.654 14.8904 247.654 14.5383C247.654 14.1772 247.194 14.0122 246.639 13.813C245.793 13.5095 244.727 13.1268 244.727 11.8514C244.727 10.4965 245.767 9.68513 247.331 9.68513C247.97 9.68513 248.602 9.78464 249.241 10.0373V11.8361C248.656 11.5223 247.916 11.3462 247.331 11.3462ZM269.681 9.68513C271.507 9.68513 272.463 11.2314 272.463 13.191C272.463 13.2969 272.457 13.4738 272.453 13.6239C272.45 13.7343 272.447 13.8301 272.447 13.8723H268.68C268.765 14.7756 269.427 15.0359 270.174 15.0359C270.937 15.0359 271.538 14.8751 272.062 14.6148V16.1458C271.538 16.4367 270.845 16.6434 269.928 16.6434C268.048 16.6434 266.738 15.4798 266.738 13.1757C266.738 11.2314 267.848 9.68513 269.681 9.68513ZM269.673 11.239C269.188 11.239 268.656 11.5987 268.656 12.4637H270.644C270.644 11.5987 270.143 11.239 269.673 11.239ZM255.737 10.3815L255.613 9.81507H253.949V16.5131H255.875V11.9737C256.33 11.3843 257.1 11.4915 257.339 11.5757V9.81507C257.093 9.72322 256.191 9.55481 255.737 10.3815ZM257.809 9.81522H259.742V16.5132H257.809V9.81522ZM263.766 9.68537C263.011 9.68537 262.526 10.0375 262.256 10.2824L262.156 9.80785H260.461V18.7334L262.387 18.3277L262.395 16.1614C262.672 16.3604 263.08 16.6436 263.758 16.6436C265.137 16.6436 266.393 15.5413 266.393 13.1147C266.386 10.8948 265.114 9.68537 263.766 9.68537ZM263.304 14.9594C262.849 14.9594 262.579 14.7987 262.394 14.5996L262.387 11.7597C262.587 11.5377 262.864 11.3846 263.304 11.3846C264.005 11.3846 264.49 12.1654 264.49 13.1682C264.49 14.1939 264.012 14.9594 263.304 14.9594Z" fill="#6461FC"/>
<rect x="179.967" y="0.5" width="37.0685" height="24.9999" rx="3.5" fill="white" stroke="#D9D9D9"/>
<path fill-rule="evenodd" clip-rule="evenodd" d="M198.769 18.5876C197.473 19.7012 195.792 20.3734 193.955 20.3734C189.856 20.3734 186.533 17.0253 186.533 12.8952C186.533 8.7651 189.856 5.41699 193.955 5.41699C195.792 5.41699 197.473 6.0892 198.769 7.20276C200.065 6.0892 201.746 5.41699 203.582 5.41699C207.681 5.41699 211.004 8.7651 211.004 12.8952C211.004 17.0253 207.681 20.3734 203.582 20.3734C201.746 20.3734 200.065 19.7012 198.769 18.5876Z" fill="#ED0006"/>
<path fill-rule="evenodd" clip-rule="evenodd" d="M198.77 18.5869C200.365 17.2152 201.377 15.1743 201.377 12.8952C201.377 10.6161 200.365 8.57518 198.77 7.20354C200.066 6.08951 201.747 5.41699 203.584 5.41699C207.683 5.41699 211.006 8.7651 211.006 12.8952C211.006 17.0253 207.683 20.3734 203.584 20.3734C201.747 20.3734 200.066 19.7009 198.77 18.5869Z" fill="#F9A000"/>
<path fill-rule="evenodd" clip-rule="evenodd" d="M198.771 18.5875C200.367 17.2159 201.379 15.1746 201.379 12.8951C201.379 10.6156 200.367 8.57428 198.771 7.20264C197.174 8.57428 196.162 10.6156 196.162 12.8951C196.162 15.1746 197.174 17.2159 198.771 18.5875Z" fill="#FF5E00"/>
<rect x="120.143" y="0.5" width="37.0685" height="24.9999" rx="3.5" fill="white" stroke="#D9D9D9"/>
<path d="M135.959 24.9166L156.625 18.6875V21.9166C156.625 23.5735 155.282 24.9166 153.625 24.9166H135.959Z" fill="#FD6020"/>
<path fill-rule="evenodd" clip-rule="evenodd" d="M152.702 9.86986C153.839 9.86986 154.465 10.3937 154.465 11.3832C154.522 12.1398 154.01 12.7801 153.328 12.8965L154.863 15.05H153.669L152.361 12.9547H152.248V15.05H151.281V9.86986H152.702ZM152.248 12.2565H152.532C153.158 12.2565 153.442 11.9654 153.442 11.4416C153.442 10.976 153.158 10.6849 152.532 10.6849H152.248V12.2565ZM147.928 15.0503H150.656V14.1772H148.894V12.7803H150.6V11.9072H148.894V10.7432H150.656V9.87011H147.928V15.0503ZM145.085 13.3623L143.777 9.87011H142.754L144.857 15.1667H145.369L147.472 9.87011H146.449L145.085 13.3623ZM133.545 12.4892C133.545 13.9443 134.682 15.1666 136.103 15.1666C136.558 15.1666 136.956 15.0502 137.354 14.8755V13.7115C137.069 14.0607 136.671 14.2935 136.217 14.2935C135.307 14.2935 134.568 13.5951 134.568 12.6638V12.5474C134.511 11.6161 135.25 10.8013 136.16 10.7431C136.615 10.7431 137.069 10.9759 137.354 11.3251V10.161C137.013 9.92821 136.558 9.87001 136.16 9.87001C134.682 9.7536 133.545 10.9759 133.545 12.4892ZM131.781 11.849C131.212 11.6162 131.042 11.4998 131.042 11.2088C131.098 10.8596 131.383 10.5685 131.724 10.6267C132.008 10.6267 132.292 10.8013 132.52 11.0342L133.031 10.3357C132.633 9.98649 132.122 9.75368 131.61 9.75368C130.814 9.69547 130.132 10.3357 130.075 11.1506V11.2088C130.075 11.9072 130.359 12.3147 131.269 12.6057C131.496 12.6639 131.724 12.7803 131.951 12.8967C132.122 13.0131 132.235 13.1877 132.235 13.4205C132.235 13.828 131.894 14.1772 131.553 14.1772H131.496C131.042 14.1772 130.644 13.8862 130.473 13.4787L129.848 14.119C130.189 14.7592 130.871 15.1084 131.553 15.1084C132.463 15.1666 133.202 14.4682 133.259 13.5369V13.3623C133.202 12.6639 132.917 12.3147 131.781 11.849ZM128.484 15.0503H129.451V9.87011H128.484V15.0503ZM123.994 9.87011H125.415H125.7C127.064 9.92831 128.144 11.0924 128.087 12.4893C128.087 13.2459 127.746 13.9444 127.178 14.4682C126.666 14.8756 126.041 15.1085 125.415 15.0503H123.994V9.87011ZM125.245 14.1773C125.7 14.2355 126.212 14.0609 126.553 13.7699C126.894 13.4207 127.064 12.955 127.064 12.4312C127.064 11.9656 126.894 11.4999 126.553 11.1507C126.212 10.8597 125.7 10.6851 125.245 10.7433H124.961V14.1773H125.245Z" fill="black"/>
<path fill-rule="evenodd" clip-rule="evenodd" d="M140.25 9.75C138.829 9.75 137.635 10.9141 137.635 12.4274C137.635 13.8825 138.772 15.1048 140.25 15.163C141.728 15.2212 142.865 13.9989 142.922 12.4856C142.865 10.9723 141.728 9.75 140.25 9.75V9.75Z" fill="#FD6020"/>
<rect x="60.3242" y="0.5" width="37.0685" height="24.9999" rx="3.5" fill="#1F72CD" stroke="#D9D9D9"/>
<path fill-rule="evenodd" clip-rule="evenodd" d="M67.0909 9.2085L63.6309 17.0591H67.773L68.2865 15.8074H69.4602L69.9737 17.0591H74.533V16.1038L74.9393 17.0591H77.2977L77.704 16.0836V17.0591H87.1861L88.339 15.8399L89.4186 17.0591L94.2888 17.0692L90.8179 13.1557L94.2888 9.2085H89.4942L88.3718 10.4052L87.3262 9.2085H77.0109L76.1252 11.2348L75.2186 9.2085H71.0851V10.1313L70.6253 9.2085H67.0909ZM81.25 10.3231H86.6951L88.3605 12.1676L90.0795 10.3231H91.7449L89.2145 13.1544L91.7449 15.9531H90.004L88.3386 14.0873L86.6108 15.9531H81.25V10.3231ZM82.5957 12.5177V11.4894V11.4884H85.9933L87.4758 13.133L85.9276 14.7866H82.5957V13.6639H85.5662V12.5177H82.5957ZM67.8932 10.3231H69.9122L72.2073 15.6467V10.3231H74.4191L76.1917 14.1401L77.8254 10.3231H80.0261V15.9565H78.687L78.6761 11.5422L76.7238 15.9565H75.5259L73.5627 11.5422V15.9565H70.8079L70.2856 14.6935H67.464L66.9428 15.9553H65.4668L67.8932 10.3231ZM67.9453 13.5261L68.8749 11.2763L69.8035 13.5261H67.9453Z" fill="white"/>
</svg>
