<svg width="123" height="36" viewBox="0 0 123 36" fill="none" xmlns="http://www.w3.org/2000/svg">
<g opacity="0.8">
<path d="M119.223 34.091C119.166 34.091 119.117 34.0736 119.077 34.0389C119.043 33.9984 119.025 33.9492 119.025 33.8914V29.7868C119.025 29.729 119.043 29.6798 119.077 29.6393C119.117 29.5988 119.166 29.5786 119.223 29.5786H119.619C119.677 29.5786 119.726 29.5988 119.766 29.6393C119.806 29.6798 119.826 29.729 119.826 29.7868V30.1686C119.941 29.9719 120.099 29.8244 120.3 29.7261C120.501 29.6277 120.745 29.5786 121.032 29.5786H121.367C121.425 29.5786 121.471 29.5988 121.505 29.6393C121.545 29.674 121.565 29.7203 121.565 29.7781V30.1339C121.565 30.1918 121.545 30.2381 121.505 30.2728C121.471 30.3075 121.425 30.3248 121.367 30.3248H120.851C120.541 30.3248 120.297 30.4174 120.119 30.6025C119.941 30.7819 119.852 31.0277 119.852 31.3401V33.8914C119.852 33.9492 119.832 33.9984 119.792 34.0389C119.752 34.0736 119.703 34.091 119.645 34.091H119.223Z" fill="white"/>
<path d="M115.997 34.1777C115.4 34.1777 114.927 33.9955 114.577 33.631C114.227 33.2608 114.034 32.7575 114 32.1211C113.994 32.0459 113.991 31.9504 113.991 31.8347C113.991 31.7132 113.994 31.6149 114 31.5397C114.023 31.129 114.117 30.7703 114.284 30.4637C114.45 30.1513 114.677 29.9112 114.964 29.7434C115.257 29.5756 115.598 29.4918 115.989 29.4918C116.425 29.4918 116.789 29.5843 117.082 29.7694C117.381 29.9546 117.607 30.2178 117.762 30.5591C117.917 30.9004 117.995 31.2996 117.995 31.7566V31.9042C117.995 31.9678 117.975 32.017 117.935 32.0517C117.9 32.0864 117.854 32.1037 117.797 32.1037H114.818C114.818 32.1095 114.818 32.1211 114.818 32.1385C114.818 32.1558 114.818 32.1703 114.818 32.1818C114.829 32.419 114.881 32.6418 114.973 32.85C115.065 33.0525 115.197 33.2174 115.369 33.3447C115.547 33.4719 115.753 33.5356 115.989 33.5356C116.195 33.5356 116.368 33.5037 116.505 33.4401C116.643 33.3765 116.755 33.3071 116.841 33.2318C116.927 33.1509 116.985 33.0872 117.013 33.0409C117.065 32.9715 117.105 32.931 117.134 32.9194C117.163 32.9021 117.208 32.8934 117.272 32.8934H117.694C117.745 32.8934 117.788 32.9108 117.823 32.9455C117.863 32.9744 117.88 33.0178 117.874 33.0756C117.869 33.1624 117.823 33.2694 117.737 33.3967C117.65 33.5182 117.527 33.6397 117.366 33.7612C117.211 33.8827 117.016 33.9839 116.781 34.0649C116.551 34.1401 116.29 34.1777 115.997 34.1777ZM114.818 31.505H117.177V31.479C117.177 31.2186 117.128 30.9872 117.031 30.7847C116.939 30.5823 116.804 30.4232 116.626 30.3075C116.448 30.186 116.236 30.1252 115.989 30.1252C115.742 30.1252 115.53 30.186 115.352 30.3075C115.179 30.4232 115.047 30.5823 114.956 30.7847C114.864 30.9872 114.818 31.2186 114.818 31.479V31.505Z" fill="white"/>
<path d="M110.903 36C110.513 36 110.192 35.948 109.939 35.8438C109.692 35.7397 109.497 35.6124 109.354 35.462C109.216 35.3174 109.115 35.1699 109.052 35.0194C108.995 34.8748 108.963 34.7591 108.958 34.6723C108.952 34.6145 108.969 34.5653 109.009 34.5248C109.055 34.4843 109.104 34.4641 109.156 34.4641H109.569C109.621 34.4641 109.664 34.4756 109.698 34.4988C109.732 34.5219 109.761 34.5711 109.784 34.6463C109.819 34.7331 109.87 34.8285 109.939 34.9327C110.008 35.0426 110.114 35.1351 110.258 35.2104C110.401 35.2913 110.602 35.3318 110.86 35.3318C111.13 35.3318 111.357 35.2942 111.541 35.219C111.724 35.1438 111.862 35.0166 111.954 34.8372C112.051 34.6579 112.1 34.4091 112.1 34.0909V33.5009C111.962 33.6802 111.782 33.8306 111.558 33.9521C111.334 34.0678 111.053 34.1256 110.714 34.1256C110.393 34.1256 110.117 34.0707 109.887 33.9608C109.658 33.8451 109.468 33.6918 109.319 33.5009C109.176 33.3042 109.067 33.0814 108.992 32.8327C108.923 32.5839 108.883 32.3236 108.871 32.0517C108.866 31.8897 108.866 31.7306 108.871 31.5744C108.883 31.3025 108.923 31.0422 108.992 30.7934C109.067 30.5447 109.176 30.3219 109.319 30.1252C109.468 29.9285 109.658 29.7752 109.887 29.6653C110.117 29.5496 110.393 29.4918 110.714 29.4918C111.058 29.4918 111.343 29.5554 111.566 29.6827C111.796 29.8099 111.983 29.969 112.126 30.1599V29.7868C112.126 29.729 112.143 29.6798 112.178 29.6393C112.218 29.5988 112.267 29.5785 112.324 29.5785H112.72C112.778 29.5785 112.826 29.5988 112.867 29.6393C112.907 29.6798 112.927 29.729 112.927 29.7868V33.9955C112.927 34.3831 112.861 34.7273 112.729 35.0281C112.602 35.329 112.39 35.5661 112.092 35.7397C111.799 35.9132 111.403 36 110.903 36ZM110.886 33.4314C111.173 33.4314 111.403 33.3649 111.575 33.2318C111.753 33.0988 111.882 32.931 111.962 32.7285C112.049 32.5261 112.095 32.3207 112.1 32.1124C112.106 32.0314 112.109 31.9331 112.109 31.8174C112.109 31.6959 112.106 31.5947 112.1 31.5137C112.095 31.3054 112.049 31.1 111.962 30.8975C111.882 30.6951 111.753 30.5273 111.575 30.3942C111.403 30.2612 111.173 30.1947 110.886 30.1947C110.599 30.1947 110.37 30.2612 110.197 30.3942C110.025 30.5215 109.902 30.6922 109.827 30.9062C109.753 31.1145 109.71 31.3401 109.698 31.5831C109.692 31.7335 109.692 31.8868 109.698 32.043C109.71 32.286 109.753 32.5145 109.827 32.7285C109.902 32.9368 110.025 33.1075 110.197 33.2405C110.37 33.3678 110.599 33.4314 110.886 33.4314Z" fill="white"/>
<path d="M105.766 36C105.375 36 105.054 35.948 104.801 35.8438C104.555 35.7397 104.359 35.6124 104.216 35.462C104.078 35.3174 103.978 35.1699 103.915 35.0194C103.857 34.8748 103.826 34.7591 103.82 34.6723C103.814 34.6145 103.831 34.5653 103.872 34.5248C103.917 34.4843 103.966 34.4641 104.018 34.4641H104.431C104.483 34.4641 104.526 34.4756 104.56 34.4988C104.595 34.5219 104.623 34.5711 104.646 34.6463C104.681 34.7331 104.733 34.8285 104.801 34.9327C104.87 35.0426 104.977 35.1351 105.12 35.2104C105.264 35.2913 105.464 35.3318 105.723 35.3318C105.992 35.3318 106.219 35.2942 106.403 35.219C106.587 35.1438 106.724 35.0166 106.816 34.8372C106.914 34.6579 106.963 34.4091 106.963 34.0909V33.5009C106.825 33.6802 106.644 33.8306 106.42 33.9521C106.196 34.0678 105.915 34.1256 105.576 34.1256C105.255 34.1256 104.979 34.0707 104.75 33.9608C104.52 33.8451 104.331 33.6918 104.182 33.5009C104.038 33.3042 103.929 33.0814 103.854 32.8327C103.785 32.5839 103.745 32.3236 103.734 32.0517C103.728 31.8897 103.728 31.7306 103.734 31.5744C103.745 31.3025 103.785 31.0422 103.854 30.7934C103.929 30.5447 104.038 30.3219 104.182 30.1252C104.331 29.9285 104.52 29.7752 104.75 29.6653C104.979 29.5496 105.255 29.4918 105.576 29.4918C105.921 29.4918 106.205 29.5554 106.429 29.6827C106.658 29.8099 106.845 29.969 106.988 30.1599V29.7868C106.988 29.729 107.006 29.6798 107.04 29.6393C107.08 29.5988 107.129 29.5785 107.186 29.5785H107.582C107.64 29.5785 107.689 29.5988 107.729 29.6393C107.769 29.6798 107.789 29.729 107.789 29.7868V33.9955C107.789 34.3831 107.723 34.7273 107.591 35.0281C107.465 35.329 107.252 35.5661 106.954 35.7397C106.661 35.9132 106.265 36 105.766 36ZM105.749 33.4314C106.036 33.4314 106.265 33.3649 106.437 33.2318C106.615 33.0988 106.744 32.931 106.825 32.7285C106.911 32.5261 106.957 32.3207 106.963 32.1124C106.968 32.0314 106.971 31.9331 106.971 31.8174C106.971 31.6959 106.968 31.5947 106.963 31.5137C106.957 31.3054 106.911 31.1 106.825 30.8975C106.744 30.6951 106.615 30.5273 106.437 30.3942C106.265 30.2612 106.036 30.1947 105.749 30.1947C105.462 30.1947 105.232 30.2612 105.06 30.3942C104.888 30.5215 104.764 30.6922 104.69 30.9062C104.615 31.1145 104.572 31.3401 104.56 31.5831C104.555 31.7335 104.555 31.8868 104.56 32.043C104.572 32.286 104.615 32.5145 104.69 32.7285C104.764 32.9368 104.888 33.1075 105.06 33.2405C105.232 33.3678 105.462 33.4314 105.749 33.4314Z" fill="white"/>
<path d="M102.045 34.0909C101.988 34.0909 101.939 34.0735 101.899 34.0388C101.864 33.9983 101.847 33.9492 101.847 33.8913V29.7781C101.847 29.7202 101.864 29.674 101.899 29.6392C101.939 29.5988 101.988 29.5785 102.045 29.5785H102.459C102.516 29.5785 102.562 29.5988 102.596 29.6392C102.636 29.674 102.657 29.7202 102.657 29.7781V33.8913C102.657 33.9492 102.636 33.9983 102.596 34.0388C102.562 34.0735 102.516 34.0909 102.459 34.0909H102.045ZM101.976 28.7368C101.919 28.7368 101.87 28.7194 101.83 28.6847C101.796 28.6442 101.778 28.595 101.778 28.5372V28.0686C101.778 28.0107 101.796 27.9616 101.83 27.9211C101.87 27.8806 101.919 27.8603 101.976 27.8603H102.519C102.576 27.8603 102.625 27.8806 102.665 27.9211C102.705 27.9616 102.725 28.0107 102.725 28.0686V28.5372C102.725 28.595 102.705 28.6442 102.665 28.6847C102.625 28.7194 102.576 28.7368 102.519 28.7368H101.976Z" fill="white"/>
<path d="M96.4051 34.0909C96.3419 34.0909 96.2931 34.0736 96.2587 34.0389C96.2243 33.9984 96.207 33.9492 96.207 33.8913V28.2248C96.207 28.1612 96.2243 28.112 96.2587 28.0773C96.2931 28.0368 96.3419 28.0165 96.4051 28.0165H98.7642C99.1947 28.0165 99.5448 28.0889 99.8146 28.2335C100.09 28.3723 100.291 28.5632 100.417 28.8062C100.549 29.0492 100.615 29.3211 100.615 29.6219C100.615 29.8591 100.575 30.0645 100.495 30.238C100.42 30.4058 100.325 30.5446 100.211 30.6546C100.096 30.7587 99.984 30.8397 99.8749 30.8975C100.099 31.0075 100.297 31.1868 100.469 31.4355C100.647 31.6843 100.736 31.9851 100.736 32.338C100.736 32.6562 100.664 32.9484 100.521 33.2145C100.377 33.4806 100.162 33.6946 99.8749 33.8566C99.5936 34.0128 99.2464 34.0909 98.8331 34.0909H96.4051ZM97.0508 33.388H98.7211C99.0885 33.388 99.3726 33.2868 99.5735 33.0843C99.7744 32.8818 99.8749 32.6331 99.8749 32.338C99.8749 32.0314 99.7744 31.7798 99.5735 31.5831C99.3726 31.3806 99.0885 31.2794 98.7211 31.2794H97.0508V33.388ZM97.0508 30.5851H98.6351C99.0024 30.5851 99.2808 30.5013 99.4702 30.3335C99.6596 30.1599 99.7544 29.9256 99.7544 29.6306C99.7544 29.3355 99.6596 29.1099 99.4702 28.9537C99.2808 28.7975 99.0024 28.7194 98.6351 28.7194H97.0508V30.5851Z" fill="white"/>
<path d="M90.9583 34.1777C90.3613 34.1777 89.8878 33.9955 89.5376 33.631C89.1875 33.2608 88.9952 32.7575 88.9608 32.1211C88.955 32.0459 88.9521 31.9504 88.9521 31.8347C88.9521 31.7132 88.955 31.6149 88.9608 31.5397C88.9837 31.129 89.0784 30.7703 89.2449 30.4637C89.4113 30.1513 89.6381 29.9112 89.9251 29.7434C90.2178 29.5756 90.5593 29.4918 90.9497 29.4918C91.3859 29.4918 91.7504 29.5843 92.0431 29.7694C92.3416 29.9546 92.5683 30.2178 92.7233 30.5591C92.8783 30.9004 92.9558 31.2996 92.9558 31.7566V31.9042C92.9558 31.9678 92.9357 32.017 92.8955 32.0517C92.8611 32.0864 92.8152 32.1037 92.7578 32.1037H89.7787C89.7787 32.1095 89.7787 32.1211 89.7787 32.1385C89.7787 32.1558 89.7787 32.1703 89.7787 32.1818C89.7902 32.419 89.8418 32.6418 89.9337 32.85C90.0255 33.0525 90.1575 33.2174 90.3297 33.3447C90.5077 33.4719 90.7143 33.5356 90.9497 33.5356C91.1563 33.5356 91.3285 33.5037 91.4663 33.4401C91.604 33.3765 91.716 33.3071 91.8021 33.2318C91.8882 33.1509 91.9456 33.0872 91.9743 33.0409C92.0259 32.9715 92.0661 32.931 92.0948 32.9194C92.1235 32.9021 92.1694 32.8934 92.2326 32.8934H92.6544C92.7061 32.8934 92.7492 32.9108 92.7836 32.9455C92.8238 32.9744 92.841 33.0178 92.8353 33.0756C92.8295 33.1624 92.7836 33.2694 92.6975 33.3967C92.6114 33.5182 92.488 33.6397 92.3273 33.7612C92.1723 33.8827 91.9771 33.9839 91.7418 34.0649C91.5122 34.1401 91.251 34.1777 90.9583 34.1777ZM89.7787 31.505H92.1378V31.479C92.1378 31.2186 92.0891 30.9872 91.9915 30.7847C91.8996 30.5823 91.7647 30.4232 91.5868 30.3075C91.4089 30.186 91.1965 30.1252 90.9497 30.1252C90.7028 30.1252 90.4905 30.186 90.3125 30.3075C90.1403 30.4232 90.0083 30.5823 89.9165 30.7847C89.8246 30.9872 89.7787 31.2186 89.7787 31.479V31.505Z" fill="white"/>
<path d="M87.2801 34.091C87.2227 34.091 87.1739 34.0737 87.1337 34.039C87.0993 33.9985 87.082 33.9493 87.082 33.8914V28.1295C87.082 28.0716 87.0993 28.0253 87.1337 27.9906C87.1739 27.9501 87.2227 27.9299 87.2801 27.9299H87.6847C87.7479 27.9299 87.7967 27.9501 87.8311 27.9906C87.8655 28.0253 87.8828 28.0716 87.8828 28.1295V33.8914C87.8828 33.9493 87.8655 33.9985 87.8311 34.039C87.7967 34.0737 87.7479 34.091 87.6847 34.091H87.2801Z" fill="white"/>
<path d="M85.1859 34.0909C85.1285 34.0909 85.0797 34.0735 85.0395 34.0388C85.005 33.9983 84.9878 33.9492 84.9878 33.8913V29.7781C84.9878 29.7202 85.005 29.674 85.0395 29.6392C85.0797 29.5988 85.1285 29.5785 85.1859 29.5785H85.5991C85.6565 29.5785 85.7025 29.5988 85.7369 29.6392C85.7771 29.674 85.7972 29.7202 85.7972 29.7781V33.8913C85.7972 33.9492 85.7771 33.9983 85.7369 34.0388C85.7025 34.0735 85.6565 34.0909 85.5991 34.0909H85.1859ZM85.117 28.7368C85.0596 28.7368 85.0108 28.7194 84.9706 28.6847C84.9362 28.6442 84.9189 28.595 84.9189 28.5372V28.0686C84.9189 28.0107 84.9362 27.9616 84.9706 27.9211C85.0108 27.8806 85.0596 27.8603 85.117 27.8603H85.6594C85.7168 27.8603 85.7656 27.8806 85.8058 27.9211C85.846 27.9616 85.8661 28.0107 85.8661 28.0686V28.5372C85.8661 28.595 85.846 28.6442 85.8058 28.6847C85.7656 28.7194 85.7168 28.7368 85.6594 28.7368H85.117Z" fill="white"/>
<path d="M77.534 34.0908C77.4766 34.0908 77.4278 34.0735 77.3876 34.0388C77.3532 33.9983 77.3359 33.9491 77.3359 33.8913V29.778C77.3359 29.7202 77.3532 29.6739 77.3876 29.6392C77.4278 29.5987 77.4766 29.5784 77.534 29.5784H77.9214C77.9788 29.5784 78.0247 29.5987 78.0592 29.6392C78.0994 29.6739 78.1194 29.7202 78.1194 29.778V30.0818C78.2515 29.9024 78.4179 29.7607 78.6188 29.6565C78.8197 29.5466 79.0608 29.4917 79.3421 29.4917C79.9907 29.4859 80.4499 29.752 80.7197 30.29C80.8517 30.047 81.044 29.8532 81.2965 29.7086C81.5491 29.564 81.8361 29.4917 82.1575 29.4917C82.456 29.4917 82.7258 29.5611 82.9669 29.6999C83.2137 29.8388 83.406 30.0499 83.5437 30.3334C83.6872 30.6111 83.759 30.9611 83.759 31.3834V33.8913C83.759 33.9491 83.7389 33.9983 83.6987 34.0388C83.6643 34.0735 83.6184 34.0908 83.561 34.0908H83.1563C83.0989 34.0908 83.0501 34.0735 83.0099 34.0388C82.9755 33.9983 82.9583 33.9491 82.9583 33.8913V31.4615C82.9583 31.1375 82.9123 30.883 82.8205 30.6979C82.7287 30.5127 82.6053 30.3826 82.4503 30.3074C82.2953 30.2322 82.126 30.1946 81.9423 30.1946C81.793 30.1946 81.6409 30.2322 81.486 30.3074C81.331 30.3826 81.2018 30.5127 81.0985 30.6979C81.0009 30.883 80.9521 31.1375 80.9521 31.4615V33.8913C80.9521 33.9491 80.932 33.9983 80.8919 34.0388C80.8574 34.0735 80.8115 34.0908 80.7541 34.0908H80.3494C80.292 34.0908 80.2432 34.0735 80.2031 34.0388C80.1686 33.9983 80.1514 33.9491 80.1514 33.8913V31.4615C80.1514 31.1375 80.1026 30.883 80.005 30.6979C79.9075 30.5127 79.7812 30.3826 79.6262 30.3074C79.4712 30.2322 79.3076 30.1946 79.1354 30.1946C78.9862 30.1946 78.8341 30.2322 78.6791 30.3074C78.5241 30.3826 78.395 30.5127 78.2916 30.6979C78.1941 30.883 78.1453 31.1346 78.1453 31.4528V33.8913C78.1453 33.9491 78.1252 33.9983 78.085 34.0388C78.0506 34.0735 78.0046 34.0908 77.9472 34.0908H77.534Z" fill="white"/>
<path d="M74.0308 34.1778C73.5314 34.1778 73.1124 34.0997 72.7737 33.9435C72.435 33.7873 72.1739 33.5877 71.9902 33.3447C71.8122 33.096 71.7175 32.8357 71.7061 32.5638C71.7061 32.5175 71.7233 32.477 71.7577 32.4423C71.7979 32.4018 71.8438 32.3815 71.8955 32.3815H72.3346C72.4035 32.3815 72.4551 32.3989 72.4896 32.4336C72.524 32.4683 72.547 32.5088 72.5584 32.5551C72.5929 32.6939 72.6646 32.8328 72.7737 32.9716C72.8828 33.1047 73.0377 33.2175 73.2386 33.31C73.4453 33.3968 73.7093 33.4402 74.0308 33.4402C74.5244 33.4402 74.886 33.3534 75.1156 33.1799C75.351 33.0005 75.4686 32.7633 75.4686 32.4683C75.4686 32.2658 75.4055 32.1038 75.2792 31.9823C75.1587 31.8551 74.9721 31.7423 74.7196 31.6439C74.467 31.5456 74.1398 31.4385 73.738 31.3228C73.319 31.2014 72.9717 31.0683 72.6962 30.9237C72.4207 30.779 72.214 30.5997 72.0763 30.3857C71.9443 30.1716 71.8783 29.8997 71.8783 29.57C71.8783 29.2576 71.9615 28.9799 72.1279 28.7369C72.2944 28.4881 72.5355 28.2914 72.8512 28.1468C73.1669 28.0022 73.5457 27.9299 73.9877 27.9299C74.3436 27.9299 74.6535 27.979 74.9176 28.0774C75.1874 28.17 75.4112 28.2972 75.5892 28.4592C75.7671 28.6154 75.902 28.7861 75.9938 28.9712C76.0857 29.1505 76.1345 29.327 76.1402 29.5005C76.1402 29.541 76.1259 29.5815 76.0972 29.622C76.0685 29.6567 76.0225 29.6741 75.9594 29.6741H75.5031C75.4629 29.6741 75.4198 29.6625 75.3739 29.6394C75.3337 29.6162 75.3022 29.5728 75.2792 29.5092C75.2448 29.272 75.1127 29.0724 74.8831 28.9104C74.6535 28.7485 74.3551 28.6675 73.9877 28.6675C73.6146 28.6675 73.3104 28.7398 73.075 28.8844C72.8454 29.029 72.7306 29.2547 72.7306 29.5613C72.7306 29.758 72.7852 29.9228 72.8942 30.0559C73.0033 30.1832 73.1755 30.296 73.4108 30.3943C73.6462 30.4927 73.9533 30.5968 74.3321 30.7067C74.7913 30.834 75.1673 30.97 75.46 31.1146C75.7528 31.2534 75.968 31.4299 76.1058 31.6439C76.2493 31.8522 76.321 32.1212 76.321 32.4509C76.321 32.8154 76.2263 33.1278 76.0369 33.3881C75.8475 33.6427 75.5806 33.8394 75.2362 33.9782C74.8975 34.1113 74.4957 34.1778 74.0308 34.1778Z" fill="white"/>
<path d="M67.6659 34.7418C67.6199 34.7418 67.5826 34.7245 67.5539 34.6898C67.531 34.6551 67.5223 34.6117 67.5281 34.5596L67.7261 33.3187C67.7376 33.2493 67.7606 33.1914 67.795 33.1451C67.8352 33.0931 67.8926 33.067 67.9672 33.067H68.5441C68.5842 33.067 68.6158 33.0815 68.6388 33.1104C68.6675 33.1394 68.6818 33.1741 68.6818 33.2146C68.6818 33.2608 68.6732 33.3071 68.656 33.3534L68.1997 34.5423C68.1767 34.6001 68.1451 34.6464 68.105 34.6811C68.0705 34.7216 68.0189 34.7418 67.95 34.7418H67.6659Z" fill="white"/>
<path d="M64.423 36C64.0327 36 63.7112 35.948 63.4587 35.8438C63.2118 35.7397 63.0167 35.6124 62.8732 35.462C62.7354 35.3174 62.635 35.1699 62.5718 35.0194C62.5144 34.8748 62.4829 34.7591 62.4771 34.6723C62.4714 34.6145 62.4886 34.5653 62.5288 34.5248C62.5747 34.4843 62.6235 34.4641 62.6752 34.4641H63.0884C63.1401 34.4641 63.1831 34.4756 63.2176 34.4988C63.252 34.5219 63.2807 34.5711 63.3037 34.6463C63.3381 34.7331 63.3898 34.8285 63.4587 34.9327C63.5275 35.0426 63.6337 35.1351 63.7772 35.2104C63.9207 35.2913 64.1216 35.3318 64.3799 35.3318C64.6497 35.3318 64.8764 35.2942 65.0601 35.219C65.2438 35.1438 65.3816 35.0166 65.4734 34.8372C65.571 34.6579 65.6198 34.4091 65.6198 34.0909V33.5009C65.482 33.6802 65.3012 33.8306 65.0773 33.9521C64.8535 34.0678 64.5722 34.1256 64.2336 34.1256C63.9121 34.1256 63.6366 34.0707 63.407 33.9608C63.1774 33.8451 62.988 33.6918 62.8387 33.5009C62.6952 33.3042 62.5862 33.0814 62.5116 32.8327C62.4427 32.5839 62.4025 32.3236 62.391 32.0517C62.3853 31.8897 62.3853 31.7306 62.391 31.5744C62.4025 31.3025 62.4427 31.0422 62.5116 30.7934C62.5862 30.5447 62.6952 30.3219 62.8387 30.1252C62.988 29.9285 63.1774 29.7752 63.407 29.6653C63.6366 29.5496 63.9121 29.4918 64.2336 29.4918C64.578 29.4918 64.8621 29.5554 65.086 29.6827C65.3156 29.8099 65.5021 29.969 65.6456 30.1599V29.7868C65.6456 29.729 65.6628 29.6798 65.6973 29.6393C65.7374 29.5988 65.7862 29.5785 65.8436 29.5785H66.2397C66.2971 29.5785 66.3459 29.5988 66.3861 29.6393C66.4262 29.6798 66.4463 29.729 66.4463 29.7868V33.9955C66.4463 34.3831 66.3803 34.7273 66.2483 35.0281C66.122 35.329 65.9096 35.5661 65.6112 35.7397C65.3184 35.9132 64.9224 36 64.423 36ZM64.4058 33.4314C64.6928 33.4314 64.9224 33.3649 65.0946 33.2318C65.2725 33.0988 65.4017 32.931 65.482 32.7285C65.5681 32.5261 65.614 32.3207 65.6198 32.1124C65.6255 32.0314 65.6284 31.9331 65.6284 31.8174C65.6284 31.6959 65.6255 31.5947 65.6198 31.5137C65.614 31.3054 65.5681 31.1 65.482 30.8975C65.4017 30.6951 65.2725 30.5273 65.0946 30.3942C64.9224 30.2612 64.6928 30.1947 64.4058 30.1947C64.1188 30.1947 63.8892 30.2612 63.717 30.3942C63.5448 30.5215 63.4214 30.6922 63.3467 30.9062C63.2721 31.1145 63.2291 31.3401 63.2176 31.5831C63.2118 31.7335 63.2118 31.8868 63.2176 32.043C63.2291 32.286 63.2721 32.5145 63.3467 32.7285C63.4214 32.9368 63.5448 33.1075 63.717 33.2405C63.8892 33.3678 64.1188 33.4314 64.4058 33.4314Z" fill="white"/>
<path d="M60.7015 34.0909C60.6441 34.0909 60.5953 34.0735 60.5551 34.0388C60.5207 33.9983 60.5034 33.9492 60.5034 33.8913V29.7781C60.5034 29.7202 60.5207 29.674 60.5551 29.6392C60.5953 29.5988 60.6441 29.5785 60.7015 29.5785H61.1148C61.1722 29.5785 61.2181 29.5988 61.2525 29.6392C61.2927 29.674 61.3128 29.7202 61.3128 29.7781V33.8913C61.3128 33.9492 61.2927 33.9983 61.2525 34.0388C61.2181 34.0735 61.1722 34.0909 61.1148 34.0909H60.7015ZM60.6326 28.7368C60.5752 28.7368 60.5264 28.7194 60.4862 28.6847C60.4518 28.6442 60.4346 28.595 60.4346 28.5372V28.0686C60.4346 28.0107 60.4518 27.9616 60.4862 27.9211C60.5264 27.8806 60.5752 27.8603 60.6326 27.8603H61.175C61.2324 27.8603 61.2812 27.8806 61.3214 27.9211C61.3616 27.9616 61.3817 28.0107 61.3817 28.0686V28.5372C61.3817 28.595 61.3616 28.6442 61.3214 28.6847C61.2812 28.7194 61.2324 28.7368 61.175 28.7368H60.6326Z" fill="white"/>
<path d="M55.0623 34.0909C54.9991 34.0909 54.9504 34.0736 54.9159 34.0389C54.8815 33.9984 54.8643 33.9492 54.8643 33.8913V28.2248C54.8643 28.1612 54.8815 28.112 54.9159 28.0773C54.9504 28.0368 54.9991 28.0165 55.0623 28.0165H57.4214C57.8519 28.0165 58.2021 28.0889 58.4718 28.2335C58.7474 28.3723 58.9483 28.5632 59.0745 28.8062C59.2066 29.0492 59.2726 29.3211 59.2726 29.6219C59.2726 29.8591 59.2324 30.0645 59.152 30.238C59.0774 30.4058 58.9827 30.5446 58.8679 30.6546C58.7531 30.7587 58.6412 30.8397 58.5321 30.8975C58.756 31.0075 58.954 31.1868 59.1262 31.4355C59.3041 31.6843 59.3931 31.9851 59.3931 32.338C59.3931 32.6562 59.3214 32.9484 59.1779 33.2145C59.0344 33.4806 58.8191 33.6946 58.5321 33.8566C58.2509 34.0128 57.9036 34.0909 57.4903 34.0909H55.0623ZM55.708 33.388H57.3784C57.7457 33.388 58.0299 33.2868 58.2308 33.0843C58.4317 32.8818 58.5321 32.6331 58.5321 32.338C58.5321 32.0314 58.4317 31.7798 58.2308 31.5831C58.0299 31.3806 57.7457 31.2794 57.3784 31.2794H55.708V33.388ZM55.708 30.5851H57.2923C57.6596 30.5851 57.938 30.5013 58.1274 30.3335C58.3169 30.1599 58.4116 29.9256 58.4116 29.6306C58.4116 29.3355 58.3169 29.1099 58.1274 28.9537C57.938 28.7975 57.6596 28.7194 57.2923 28.7194H55.708V30.5851Z" fill="white"/>
<path d="M47.6189 34.0909C47.5615 34.0909 47.5127 34.0736 47.4726 34.0389C47.4381 33.9984 47.4209 33.9492 47.4209 33.8913V29.7781C47.4209 29.7203 47.4381 29.674 47.4726 29.6393C47.5127 29.5988 47.5615 29.5785 47.6189 29.5785H48.0236C48.081 29.5785 48.1269 29.5988 48.1614 29.6393C48.2015 29.674 48.2216 29.7203 48.2216 29.7781V30.1599C48.3709 29.9632 48.5574 29.8042 48.7813 29.6827C49.0109 29.5554 49.3036 29.4918 49.6595 29.4918C50.0326 29.4918 50.3483 29.5756 50.6066 29.7434C50.8706 29.9054 51.0687 30.1339 51.2007 30.429C51.3384 30.7182 51.4073 31.0566 51.4073 31.4442V33.8913C51.4073 33.9492 51.3872 33.9984 51.3471 34.0389C51.3126 34.0736 51.2667 34.0909 51.2093 34.0909H50.7788C50.7214 34.0909 50.6726 34.0736 50.6324 34.0389C50.598 33.9984 50.5808 33.9492 50.5808 33.8913V31.4876C50.5808 31.0827 50.4832 30.7674 50.288 30.5418C50.0929 30.3104 49.8059 30.1947 49.427 30.1947C49.0711 30.1947 48.7841 30.3104 48.566 30.5418C48.3536 30.7674 48.2475 31.0827 48.2475 31.4876V33.8913C48.2475 33.9492 48.2274 33.9984 48.1872 34.0389C48.1527 34.0736 48.1068 34.0909 48.0494 34.0909H47.6189Z" fill="white"/>
<path d="M45.5325 34.0909C45.4751 34.0909 45.4263 34.0735 45.3862 34.0388C45.3517 33.9983 45.3345 33.9492 45.3345 33.8913V29.7781C45.3345 29.7202 45.3517 29.674 45.3862 29.6392C45.4263 29.5988 45.4751 29.5785 45.5325 29.5785H45.9458C46.0032 29.5785 46.0491 29.5988 46.0836 29.6392C46.1238 29.674 46.1438 29.7202 46.1438 29.7781V33.8913C46.1438 33.9492 46.1238 33.9983 46.0836 34.0388C46.0491 34.0735 46.0032 34.0909 45.9458 34.0909H45.5325ZM45.4637 28.7368C45.4063 28.7368 45.3575 28.7194 45.3173 28.6847C45.2828 28.6442 45.2656 28.595 45.2656 28.5372V28.0686C45.2656 28.0107 45.2828 27.9616 45.3173 27.9211C45.3575 27.8806 45.4063 27.8603 45.4637 27.8603H46.0061C46.0635 27.8603 46.1123 27.8806 46.1525 27.9211C46.1926 27.9616 46.2127 28.0107 46.2127 28.0686V28.5372C46.2127 28.595 46.1926 28.6442 46.1525 28.6847C46.1123 28.7194 46.0635 28.7368 46.0061 28.7368H45.4637Z" fill="white"/>
<path d="M39.5679 34.0909C39.4932 34.0909 39.433 34.0707 39.387 34.0302C39.3469 33.9897 39.3182 33.9318 39.3009 33.8566L38.1903 28.2855C38.1845 28.2624 38.1816 28.2422 38.1816 28.2248C38.1816 28.2074 38.1816 28.1959 38.1816 28.1901C38.1816 28.1438 38.1989 28.1033 38.2333 28.0686C38.2677 28.0339 38.3079 28.0165 38.3538 28.0165H38.8016C38.9221 28.0165 38.991 28.0657 39.0082 28.1641L39.8864 32.6417L40.8163 29.5698C40.8335 29.5178 40.8622 29.4715 40.9024 29.431C40.9483 29.3847 41.0115 29.3616 41.0918 29.3616H41.4104C41.4965 29.3616 41.5596 29.3847 41.5998 29.431C41.64 29.4715 41.6658 29.5178 41.6773 29.5698L42.6158 32.6417L43.4854 28.1641C43.5026 28.0657 43.5744 28.0165 43.7007 28.0165H44.1484C44.1943 28.0165 44.2345 28.0339 44.2689 28.0686C44.3034 28.1033 44.3206 28.1438 44.3206 28.1901C44.3206 28.1959 44.3177 28.2074 44.312 28.2248C44.312 28.2422 44.312 28.2624 44.312 28.2855L43.2013 33.8566C43.1841 33.9318 43.1525 33.9897 43.1066 34.0302C43.0664 34.0707 43.009 34.0909 42.9344 34.0909H42.5986C42.5182 34.0909 42.4551 34.0707 42.4092 34.0302C42.3632 33.9897 42.3317 33.9376 42.3144 33.874L41.2468 30.5678L40.1878 33.874C40.1648 33.9376 40.1304 33.9897 40.0845 34.0302C40.0443 34.0707 39.984 34.0909 39.9036 34.0909H39.5679Z" fill="white"/>
<path d="M34.2596 34.7418C34.2137 34.7418 34.1764 34.7245 34.1477 34.6898C34.1247 34.6551 34.1161 34.6117 34.1218 34.5596L34.3199 33.3187C34.3313 33.2493 34.3543 33.1914 34.3887 33.1451C34.4289 33.0931 34.4863 33.067 34.5609 33.067H35.1378C35.178 33.067 35.2096 33.0815 35.2325 33.1104C35.2612 33.1394 35.2756 33.1741 35.2756 33.2146C35.2756 33.2608 35.267 33.3071 35.2497 33.3534L34.7934 34.5423C34.7705 34.6001 34.7389 34.6464 34.6987 34.6811C34.6643 34.7216 34.6126 34.7418 34.5437 34.7418H34.2596Z" fill="white"/>
<path d="M29.2791 34.091C29.2217 34.091 29.1729 34.0737 29.1327 34.039C29.0983 33.9985 29.0811 33.9493 29.0811 33.8914V28.1295C29.0811 28.0716 29.0983 28.0253 29.1327 27.9906C29.1729 27.9501 29.2217 27.9299 29.2791 27.9299H29.7096C29.7727 27.9299 29.8215 27.9501 29.856 27.9906C29.8904 28.0253 29.9076 28.0716 29.9076 28.1295V30.1514C30.0626 29.9547 30.252 29.7956 30.4759 29.6741C30.6997 29.5526 30.9839 29.4919 31.3283 29.4919C31.7014 29.4919 32.0171 29.5757 32.2754 29.7435C32.5394 29.9055 32.7374 30.134 32.8695 30.429C33.0072 30.7183 33.0761 31.0567 33.0761 31.4443V33.8914C33.0761 33.9493 33.0589 33.9985 33.0244 34.039C32.99 34.0737 32.9412 34.091 32.8781 34.091H32.4476C32.3902 34.091 32.3414 34.0737 32.3012 34.039C32.2668 33.9985 32.2495 33.9493 32.2495 33.8914V31.4877C32.2495 31.0828 32.152 30.7675 31.9568 30.5419C31.7616 30.3104 31.4746 30.1947 31.0958 30.1947C30.7399 30.1947 30.4529 30.3104 30.2348 30.5419C30.0167 30.7675 29.9076 31.0828 29.9076 31.4877V33.8914C29.9076 33.9493 29.8904 33.9985 29.856 34.039C29.8215 34.0737 29.7727 34.091 29.7096 34.091H29.2791Z" fill="white"/>
<path d="M25.7706 36C25.3803 36 25.0589 35.948 24.8063 35.8438C24.5595 35.7397 24.3643 35.6124 24.2208 35.462C24.0831 35.3174 23.9826 35.1699 23.9195 35.0194C23.8621 34.8748 23.8305 34.7591 23.8248 34.6723C23.819 34.6145 23.8363 34.5653 23.8764 34.5248C23.9224 34.4843 23.9711 34.4641 24.0228 34.4641H24.4361C24.4877 34.4641 24.5308 34.4756 24.5652 34.4988C24.5997 34.5219 24.6284 34.5711 24.6513 34.6463C24.6858 34.7331 24.7374 34.8285 24.8063 34.9327C24.8752 35.0426 24.9814 35.1351 25.1249 35.2104C25.2684 35.2913 25.4693 35.3318 25.7276 35.3318C25.9974 35.3318 26.2241 35.2942 26.4078 35.219C26.5915 35.1438 26.7292 35.0166 26.8211 34.8372C26.9186 34.6579 26.9674 34.4091 26.9674 34.0909V33.5009C26.8297 33.6802 26.6489 33.8306 26.425 33.9521C26.2011 34.0678 25.9199 34.1256 25.5812 34.1256C25.2598 34.1256 24.9843 34.0707 24.7547 33.9608C24.5251 33.8451 24.3356 33.6918 24.1864 33.5009C24.0429 33.3042 23.9338 33.0814 23.8592 32.8327C23.7903 32.5839 23.7502 32.3236 23.7387 32.0517C23.7329 31.8897 23.7329 31.7306 23.7387 31.5744C23.7502 31.3025 23.7903 31.0422 23.8592 30.7934C23.9338 30.5447 24.0429 30.3219 24.1864 30.1252C24.3356 29.9285 24.5251 29.7752 24.7547 29.6653C24.9843 29.5496 25.2598 29.4918 25.5812 29.4918C25.9256 29.4918 26.2097 29.5554 26.4336 29.6827C26.6632 29.8099 26.8498 29.969 26.9933 30.1599V29.7868C26.9933 29.729 27.0105 29.6798 27.0449 29.6393C27.0851 29.5988 27.1339 29.5785 27.1913 29.5785H27.5873C27.6447 29.5785 27.6935 29.5988 27.7337 29.6393C27.7739 29.6798 27.794 29.729 27.794 29.7868V33.9955C27.794 34.3831 27.728 34.7273 27.596 35.0281C27.4697 35.329 27.2573 35.5661 26.9588 35.7397C26.6661 35.9132 26.27 36 25.7706 36ZM25.7534 33.4314C26.0404 33.4314 26.27 33.3649 26.4422 33.2318C26.6202 33.0988 26.7493 32.931 26.8297 32.7285C26.9158 32.5261 26.9617 32.3207 26.9674 32.1124C26.9732 32.0314 26.976 31.9331 26.976 31.8174C26.976 31.6959 26.9732 31.5947 26.9674 31.5137C26.9617 31.3054 26.9158 31.1 26.8297 30.8975C26.7493 30.6951 26.6202 30.5273 26.4422 30.3942C26.27 30.2612 26.0404 30.1947 25.7534 30.1947C25.4664 30.1947 25.2368 30.2612 25.0646 30.3942C24.8924 30.5215 24.769 30.6922 24.6944 30.9062C24.6198 31.1145 24.5767 31.3401 24.5652 31.5831C24.5595 31.7335 24.5595 31.8868 24.5652 32.043C24.5767 32.286 24.6198 32.5145 24.6944 32.7285C24.769 32.9368 24.8924 33.1075 25.0646 33.2405C25.2368 33.3678 25.4664 33.4314 25.7534 33.4314Z" fill="white"/>
<path d="M22.0482 34.0909C21.9908 34.0909 21.942 34.0735 21.9018 34.0388C21.8673 33.9983 21.8501 33.9492 21.8501 33.8913V29.7781C21.8501 29.7202 21.8673 29.674 21.9018 29.6392C21.942 29.5988 21.9908 29.5785 22.0482 29.5785H22.4614C22.5188 29.5785 22.5648 29.5988 22.5992 29.6392C22.6394 29.674 22.6595 29.7202 22.6595 29.7781V33.8913C22.6595 33.9492 22.6394 33.9983 22.5992 34.0388C22.5648 34.0735 22.5188 34.0909 22.4614 34.0909H22.0482ZM21.9793 28.7368C21.9219 28.7368 21.8731 28.7194 21.8329 28.6847C21.7985 28.6442 21.7812 28.595 21.7812 28.5372V28.0686C21.7812 28.0107 21.7985 27.9616 21.8329 27.9211C21.8731 27.8806 21.9219 27.8603 21.9793 27.8603H22.5217C22.5791 27.8603 22.6279 27.8806 22.6681 27.9211C22.7083 27.9616 22.7284 28.0107 22.7284 28.0686V28.5372C22.7284 28.595 22.7083 28.6442 22.6681 28.6847C22.6279 28.7194 22.5791 28.7368 22.5217 28.7368H21.9793Z" fill="white"/>
<path d="M16.0135 34.0909C15.9503 34.0909 15.9015 34.0736 15.8671 34.0389C15.8326 33.9984 15.8154 33.9492 15.8154 33.8913V28.2248C15.8154 28.1612 15.8326 28.112 15.8671 28.0773C15.9015 28.0368 15.9503 28.0165 16.0135 28.0165H16.4526C16.5157 28.0165 16.5645 28.0368 16.5989 28.0773C16.6391 28.112 16.6592 28.1612 16.6592 28.2248V30.6198H19.6211V28.2248C19.6211 28.1612 19.6383 28.112 19.6727 28.0773C19.7129 28.0368 19.7617 28.0165 19.8191 28.0165H20.2582C20.3213 28.0165 20.3701 28.0368 20.4046 28.0773C20.4447 28.112 20.4648 28.1612 20.4648 28.2248V33.8913C20.4648 33.9492 20.4447 33.9984 20.4046 34.0389C20.3701 34.0736 20.3213 34.0909 20.2582 34.0909H19.8191C19.7617 34.0909 19.7129 34.0736 19.6727 34.0389C19.6383 33.9984 19.6211 33.9492 19.6211 33.8913V31.4008H16.6592V33.8913C16.6592 33.9492 16.6391 33.9984 16.5989 34.0389C16.5645 34.0736 16.5157 34.0909 16.4526 34.0909H16.0135Z" fill="white"/>
<path d="M10.1091 34.1778C9.79344 34.1778 9.52079 34.1228 9.29119 34.0129C9.06159 33.8972 8.87217 33.7439 8.72293 33.553C8.57943 33.3563 8.47037 33.1336 8.39575 32.8848C8.32687 32.6361 8.28669 32.3728 8.27521 32.0952C8.26947 32.0026 8.2666 31.9158 8.2666 31.8348C8.2666 31.7538 8.26947 31.6671 8.27521 31.5745C8.28669 31.3026 8.32687 31.0423 8.39575 30.7935C8.47037 30.5447 8.57943 30.322 8.72293 30.1253C8.87217 29.9286 9.06159 29.7753 9.29119 29.6654C9.52079 29.5497 9.79344 29.4919 10.1091 29.4919C10.4478 29.4919 10.7291 29.5526 10.9529 29.6741C11.1768 29.7956 11.3605 29.946 11.504 30.1253V28.1295C11.504 28.0716 11.5212 28.0253 11.5556 27.9906C11.5958 27.9501 11.6446 27.9299 11.702 27.9299H12.1153C12.1727 27.9299 12.2186 27.9501 12.253 27.9906C12.2932 28.0253 12.3133 28.0716 12.3133 28.1295V33.8914C12.3133 33.9493 12.2932 33.9985 12.253 34.039C12.2186 34.0737 12.1727 34.091 12.1153 34.091H11.7278C11.6647 34.091 11.6159 34.0737 11.5815 34.039C11.547 33.9985 11.5298 33.9493 11.5298 33.8914V33.527C11.3863 33.7121 11.1997 33.8683 10.9701 33.9956C10.7405 34.1171 10.4535 34.1778 10.1091 34.1778ZM10.29 33.4749C10.577 33.4749 10.8066 33.4084 10.9788 33.2753C11.151 33.1423 11.2801 32.9745 11.3662 32.772C11.4523 32.5638 11.4982 32.3526 11.504 32.1385C11.5097 32.046 11.5126 31.9361 11.5126 31.8088C11.5126 31.6757 11.5097 31.5629 11.504 31.4704C11.4982 31.2679 11.4494 31.0683 11.3576 30.8716C11.2715 30.6749 11.1395 30.5129 10.9615 30.3857C10.7893 30.2584 10.5655 30.1947 10.29 30.1947C9.99721 30.1947 9.76474 30.2613 9.59254 30.3943C9.42034 30.5216 9.29693 30.6923 9.22231 30.9063C9.14769 31.1146 9.10464 31.3402 9.09316 31.5832C9.08742 31.7509 9.08742 31.9187 9.09316 32.0865C9.10464 32.3295 9.14769 32.558 9.22231 32.772C9.29693 32.9803 9.42034 33.1509 9.59254 33.284C9.76474 33.4113 9.99721 33.4749 10.29 33.4749Z" fill="white"/>
<path d="M6.58722 34.0909C6.52982 34.0909 6.48103 34.0735 6.44085 34.0388C6.40641 33.9983 6.38919 33.9492 6.38919 33.8913V29.7781C6.38919 29.7202 6.40641 29.674 6.44085 29.6392C6.48103 29.5988 6.52982 29.5785 6.58722 29.5785H7.0005C7.0579 29.5785 7.10382 29.5988 7.13826 29.6392C7.17844 29.674 7.19853 29.7202 7.19853 29.7781V33.8913C7.19853 33.9492 7.17844 33.9983 7.13826 34.0388C7.10382 34.0735 7.0579 34.0909 7.0005 34.0909H6.58722ZM6.51834 28.7368C6.46094 28.7368 6.41215 28.7194 6.37197 28.6847C6.33753 28.6442 6.32031 28.595 6.32031 28.5372V28.0686C6.32031 28.0107 6.33753 27.9616 6.37197 27.9211C6.41215 27.8806 6.46094 27.8603 6.51834 27.8603H7.06077C7.11817 27.8603 7.16696 27.8806 7.20714 27.9211C7.24732 27.9616 7.26741 28.0107 7.26741 28.0686V28.5372C7.26741 28.595 7.24732 28.6442 7.20714 28.6847C7.16696 28.7194 7.11817 28.7368 7.06077 28.7368H6.51834Z" fill="white"/>
<path d="M0.947053 34.0909C0.883913 34.0909 0.835123 34.0736 0.800683 34.0389C0.766243 33.9984 0.749023 33.9492 0.749023 33.8913V28.2248C0.749023 28.1612 0.766243 28.112 0.800683 28.0773C0.835123 28.0368 0.883913 28.0165 0.947053 28.0165H3.30619C3.73669 28.0165 4.08683 28.0889 4.35661 28.2335C4.63213 28.3723 4.83303 28.5632 4.95931 28.8062C5.09133 29.0492 5.15734 29.3211 5.15734 29.6219C5.15734 29.8591 5.11716 30.0645 5.0368 30.238C4.96218 30.4058 4.86747 30.5446 4.75267 30.6546C4.63787 30.7587 4.52594 30.8397 4.41688 30.8975C4.64074 31.0075 4.83877 31.1868 5.01097 31.4355C5.18891 31.6843 5.27788 31.9851 5.27788 32.338C5.27788 32.6562 5.20613 32.9484 5.06263 33.2145C4.91913 33.4806 4.70388 33.6946 4.41688 33.8566C4.13562 34.0128 3.78835 34.0909 3.37507 34.0909H0.947053ZM1.5928 33.388H3.26314C3.6305 33.388 3.91463 33.2868 4.11553 33.0843C4.31643 32.8818 4.41688 32.6331 4.41688 32.338C4.41688 32.0314 4.31643 31.7798 4.11553 31.5831C3.91463 31.3806 3.6305 31.2794 3.26314 31.2794H1.5928V33.388ZM1.5928 30.5851H3.17704C3.5444 30.5851 3.82279 30.5013 4.01221 30.3335C4.20163 30.1599 4.29634 29.9256 4.29634 29.6306C4.29634 29.3355 4.20163 29.1099 4.01221 28.9537C3.82279 28.7975 3.5444 28.7194 3.17704 28.7194H1.5928V30.5851Z" fill="white"/>
</g>
<g clip-path="url(#clip0_2225_41563)">
<path d="M64.4885 5.69557C63.9133 4.22128 63.1132 3.0746 62.1005 2.24295C61.1128 1.41129 59.9875 0.831655 58.7373 0.491432C57.4995 0.163811 56.2243 0 54.899 0C53.5862 0 52.2985 0.163811 51.0357 0.491432C49.798 0.806453 48.6727 1.37349 47.6725 2.20514C46.6723 3.0368 45.8847 4.19608 45.2846 5.67037C44.7094 7.14467 44.4219 9.03479 44.4219 11.3407C44.4219 13.6467 44.7094 15.5368 45.2846 17.0111C45.8847 18.4854 46.6723 19.6321 47.6725 20.4637C48.6727 21.2954 49.798 21.875 51.0357 22.2153C52.2985 22.5177 53.5862 22.6815 54.899 22.6815C56.2243 22.6815 57.4995 22.5177 58.7373 22.1775C59.9875 21.8498 61.1128 21.2702 62.1005 20.4385C63.1132 19.6069 63.9133 18.4476 64.4885 16.9733C65.0761 15.499 65.3761 13.6215 65.3761 11.3407C65.3761 9.04739 65.0761 7.16987 64.4885 5.69557ZM58.3622 16.0157C57.5745 16.9229 56.4243 17.3765 54.899 17.3765C53.3987 17.3765 52.2485 16.9103 51.4733 15.9779C50.6856 15.0454 50.2981 13.4955 50.2981 11.3407C50.2981 9.1734 50.6856 7.6361 51.4733 6.69104C52.2485 5.75858 53.3987 5.29235 54.899 5.29235C56.4243 5.29235 57.5745 5.74598 58.3622 6.66584C59.1499 7.5731 59.5374 9.1356 59.5374 11.3407C59.5374 13.5459 59.1499 15.0958 58.3622 16.0157Z" fill="white"/>
<path d="M40.808 18.9139L37.7449 15.0454L37.4323 14.7052C38.5701 14.1633 39.4577 13.3569 40.0954 12.2732C40.733 11.1769 41.0456 9.74045 41.0456 7.97634C41.0456 6.02321 40.6955 4.49851 39.9703 3.38964C39.2702 2.26816 38.3075 1.48691 37.0948 1.02068C35.8945 0.541848 34.5442 0.315033 33.0439 0.315033H23.1544L22.5293 2.17996L23.1544 5.33016V22.3665H28.7181L29.0306 20.4638L28.7181 17.3514V15.7258H31.2811L35.607 22.3665H42.5709V20.5016L40.808 18.9139ZM34.3067 10.2445C33.6691 10.6477 32.8189 10.8367 31.7437 10.8367H28.7181L28.4055 5.29236H31.6186C32.3438 5.29236 32.9689 5.35537 33.5065 5.48137C34.0691 5.60738 34.4942 5.8594 34.8068 6.26262C35.1194 6.62805 35.2694 7.20769 35.2694 7.97634C35.2694 9.07261 34.9568 9.82866 34.3067 10.2445Z" fill="white"/>
<path d="M17.441 3.38964C16.7284 2.26816 15.7782 1.48691 14.5655 1.02068C13.3652 0.541848 12.0149 0.315033 10.5146 0.315033H0.612625L0 2.17996L0.612625 5.33016V22.3665H6.18876L6.48882 20.4638L6.18876 17.3514V15.7258H9.57695C11.3148 15.7258 12.8526 15.4864 14.1904 15.0202C15.5532 14.5414 16.6159 13.7349 17.3785 12.6134C18.1412 11.4794 18.5163 9.92947 18.5163 7.97634C18.5163 6.02321 18.1537 4.49851 17.441 3.38964ZM11.7774 10.2445C11.1398 10.6477 10.2896 10.8367 9.21437 10.8367H6.18876L5.87619 5.29236H9.08935C9.8145 5.29236 10.4396 5.35537 10.9772 5.48137C11.5273 5.60738 11.9649 5.8594 12.2775 6.26262C12.5776 6.62805 12.7401 7.20769 12.7401 7.97634C12.7401 9.07261 12.415 9.82866 11.7774 10.2445Z" fill="white"/>
<path d="M67.639 22.6814H66.9639V22.6689C67.1889 22.6814 67.414 22.6814 67.639 22.6814Z" fill="white"/>
<path d="M67.639 0C67.414 0 67.1889 0 66.9639 0.0124748V0H67.639Z" fill="white"/>
<path d="M66.9639 0V0.0126008C67.1889 0 67.414 0 67.639 0H66.9639ZM66.9639 22.6689V22.6815H67.639C67.414 22.6815 67.1889 22.6815 66.9639 22.6689Z" fill="white"/>
<path d="M67.639 0C67.414 0 67.1889 0 66.9639 0.0126008V0H56.3867C57.712 0 58.9872 0.163811 60.225 0.491432C61.4753 0.831655 62.6005 1.41129 63.5882 2.24295C64.6009 3.0746 65.4011 4.22128 65.9762 5.69557C66.5763 7.16987 66.8638 9.04739 66.8638 11.3407C66.8638 13.6215 66.5763 15.499 65.9762 16.9733C65.4011 18.4476 64.6009 19.6069 63.5882 20.4385C62.6005 21.2702 61.4753 21.8498 60.225 22.1775C58.9872 22.5177 57.712 22.6815 56.3867 22.6815H66.9639V22.6689C67.1889 22.6815 67.414 22.6815 67.639 22.6815H118C120.762 22.6815 123 20.4429 123 17.6815V4.99999C123 2.23857 120.762 0 118 0H67.639ZM87.493 19.1785C86.4553 20.0227 84.93 20.4511 82.9171 20.4511H72.7901V6.79185L72.29 4.30948L72.7901 2.80998H81.1918C83.0546 2.80998 84.5424 3.16281 85.6677 3.85585C86.7804 4.5489 87.343 5.68297 87.343 7.24548C87.343 8.02673 87.218 8.73237 86.9554 9.36242C86.6929 9.99246 86.3053 10.4839 85.8177 10.8367C86.9304 11.2021 87.7556 11.7566 88.2807 12.5C88.8183 13.2561 89.0809 14.1381 89.0809 15.1714C89.0809 16.9733 88.5558 18.3216 87.493 19.1785ZM96.5074 20.4511H92.0315V6.79185L91.7814 4.30948L92.0315 2.80998H96.5074V20.4511ZM116.224 16.0157C115.711 17.1749 115.024 18.0822 114.148 18.7374C113.273 19.3801 112.286 19.8337 111.185 20.0731C110.098 20.3251 108.972 20.4511 107.822 20.4511H100.458V6.81705L99.9581 4.33468L100.458 2.80998H107.822C109.01 2.80998 110.148 2.92339 111.235 3.16281C112.336 3.37702 113.311 3.79285 114.173 4.41029C115.049 5.01513 115.724 5.89719 116.224 7.04386C116.736 8.19054 116.987 9.67744 116.987 11.5046C116.987 13.3317 116.736 14.8312 116.224 16.0157Z" fill="white"/>
<path d="M112.323 11.5045C112.323 13.2687 111.935 14.5413 111.16 15.3226C110.385 16.0786 109.272 16.4693 107.822 16.4693H104.946V6.79184H107.822C109.247 6.79184 110.36 7.14466 111.135 7.83771C111.923 8.53075 112.323 9.74043 112.323 11.5045Z" fill="white"/>
<path d="M84.2042 14.9446C84.2042 15.1966 84.1541 15.436 84.0541 15.6628C83.9791 15.9022 83.7916 16.0913 83.4915 16.2425C83.2039 16.3937 82.7664 16.4693 82.1787 16.4693H77.2402V13.3695H82.4288C83.0039 13.3695 83.4415 13.5333 83.7416 13.8483C84.0541 14.1507 84.2042 14.5162 84.2042 14.9446Z" fill="white"/>
<path d="M82.7288 8.21573C82.7288 8.64416 82.6038 8.99699 82.3538 9.2616C82.1037 9.52622 81.7036 9.66483 81.141 9.66483H77.2402V6.79184H80.891C81.3911 6.79184 81.8162 6.89265 82.1787 7.09426C82.5413 7.29587 82.7288 7.6739 82.7288 8.21573Z" fill="white"/>
</g>
<defs>
<clipPath id="clip0_2225_41563">
<rect width="123" height="22.6815" fill="white"/>
</clipPath>
</defs>
</svg>
